<?xml version="1.0" encoding="utf-8"?>
<!-- Generator: Adobe Illustrator 15.0.0, SVG Export Plug-In . SVG Version: 6.00 Build 0)  -->
<!DOCTYPE svg PUBLIC "-//W3C//DTD SVG 1.1//EN" "http://www.w3.org/Graphics/SVG/1.1/DTD/svg11.dtd">
<svg version="1.1" id="Layer_1" xmlns="http://www.w3.org/2000/svg" xmlns:xlink="http://www.w3.org/1999/xlink" x="0px" y="0px"
	 width="334px" height="131.333px" viewBox="0 0 334 131.333" enable-background="new 0 0 334 131.333" xml:space="preserve">
<g>
	<path fill="#939598" d="M58.807,61.401v1.462H55.97v30.902h2.965v1.419l-4.47-0.043v-33.74H58.807z"/>
	<path fill="#939598" d="M61.784,71.355c0-0.94,0.501-1.41,1.504-1.41c1.034,0,1.551,0.486,1.551,1.457
		c0,0.939-0.502,1.41-1.504,1.41C62.301,72.812,61.784,72.326,61.784,71.355z M61.784,84.843c0-0.939,0.501-1.41,1.504-1.41
		c1.034,0,1.551,0.486,1.551,1.457c0,0.94-0.502,1.41-1.504,1.41C62.301,86.3,61.784,85.815,61.784,84.843z"/>
	<path fill="#939598" d="M67.893,71.355c0-0.94,0.501-1.41,1.504-1.41c1.034,0,1.551,0.486,1.551,1.457
		c0,0.939-0.502,1.41-1.504,1.41C68.41,72.812,67.893,72.326,67.893,71.355z M67.893,84.843c0-0.939,0.501-1.41,1.504-1.41
		c1.034,0,1.551,0.486,1.551,1.457c0,0.94-0.502,1.41-1.504,1.41C68.41,86.3,67.893,85.815,67.893,84.843z"/>
	<path fill="#00AEEF" d="M75.151,78.169c0,1.989,0.573,3.604,1.719,4.845s2.693,1.86,4.642,1.86c1.317,0,2.564-0.318,3.739-0.957
		c1.347-0.695,2.22-1.623,2.622-2.782l1.633,0.952c-1.49,3.004-4.155,4.506-7.994,4.506c-2.521,0-4.577-0.777-6.167-2.332
		c-1.59-1.556-2.386-3.6-2.386-6.135c0-2.562,0.802-4.657,2.407-6.285c1.604-1.626,3.681-2.44,6.232-2.44
		c2.579,0,4.677,0.814,6.297,2.44c1.618,1.628,2.428,3.737,2.428,6.328H75.151z M75.151,76.536h13.238
		c0-1.617-0.757-2.946-2.271-3.985c-1.343-0.953-2.842-1.43-4.499-1.43c-1.657,0-3.113,0.477-4.37,1.43
		C75.851,73.589,75.151,74.918,75.151,76.536z"/>
	<path fill="#00AEEF" d="M100.939,86.207V69.659h1.719v2.407c0.573-1.776,2.292-2.665,5.158-2.665c4.384,0,6.576,2.394,6.576,7.178
		v9.628h-1.719v-9.585c0-3.667-1.619-5.501-4.856-5.501c-1.662,0-2.938,0.474-3.826,1.422s-1.332,2.256-1.332,3.923v9.741H100.939z"
		/>
	<path fill="#00AEEF" d="M127.715,86.207V71.378h-2.364v-1.72h2.364v-8.467h1.719v8.467h4.083v1.72h-4.083v14.828H127.715z"/>
	<path fill="#00AEEF" d="M146.067,78.169c0,1.989,0.572,3.604,1.719,4.845s2.693,1.86,4.643,1.86c1.316,0,2.563-0.318,3.738-0.957
		c1.348-0.695,2.221-1.623,2.622-2.782l1.634,0.952c-1.49,3.004-4.155,4.506-7.994,4.506c-2.521,0-4.578-0.777-6.168-2.332
		c-1.59-1.556-2.386-3.6-2.386-6.135c0-2.562,0.802-4.657,2.407-6.285c1.604-1.626,3.682-2.44,6.232-2.44
		c2.578,0,4.677,0.814,6.297,2.44c1.617,1.628,2.428,3.737,2.428,6.328H146.067z M146.067,76.536h13.238
		c0-1.617-0.758-2.946-2.271-3.985c-1.342-0.953-2.842-1.43-4.498-1.43s-3.113,0.477-4.369,1.43
		C146.767,73.589,146.067,74.918,146.067,76.536z"/>
	<path fill="#00AEEF" d="M187.112,83.155c-1.748,2.293-4.068,3.438-6.963,3.438c-2.607,0-4.756-0.799-6.446-2.397
		s-2.536-3.708-2.536-6.328c0-2.562,0.816-4.615,2.45-6.155c1.634-1.541,3.739-2.312,6.317-2.312c3.152,0,5.545,1.09,7.178,3.267
		v-3.009h1.72V85.82c0,2.606-0.752,4.685-2.257,6.232c-1.504,1.547-3.561,2.32-6.167,2.32c-4.813,0-7.651-1.862-8.511-5.587h1.72
		c0.831,2.578,3.095,3.868,6.791,3.868c2.063,0,3.696-0.631,4.899-1.892s1.805-2.923,1.805-4.985V83.155z M186.94,78.083
		c0-2.047-0.659-3.72-1.977-5.017c-1.318-1.298-2.994-1.946-5.029-1.946c-2.034,0-3.682,0.62-4.941,1.86
		c-1.262,1.239-1.892,2.883-1.892,4.93c0,2.048,0.659,3.72,1.978,5.018c1.316,1.297,2.993,1.946,5.027,1.946
		c2.035,0,3.682-0.62,4.943-1.86C186.311,81.775,186.94,80.131,186.94,78.083z"/>
	<path fill="#00AEEF" d="M200.694,86.207V69.659h1.719v2.149c0.602-1.604,1.806-2.407,3.611-2.407c1.746,0,3.008,0.467,3.781,1.397
		l-0.773,1.396c-0.803-0.716-1.676-1.074-2.621-1.074c-0.832,0-1.705,0.33-2.622,0.988c-0.917,0.659-1.376,1.391-1.376,2.192v11.905
		H200.694z"/>
	<path fill="#00AEEF" d="M221.151,65.06c0-0.859,0.459-1.289,1.376-1.289c0.945,0,1.419,0.444,1.419,1.332
		c0,0.859-0.459,1.29-1.376,1.29C221.624,66.393,221.151,65.949,221.151,65.06z M221.667,69.659h1.72v16.548h-1.72V69.659z"/>
	<path fill="#00AEEF" d="M237.957,86.207V71.378h-2.364v-1.72h2.364v-8.467h1.72v8.467h4.082v1.72h-4.082v14.828H237.957z"/>
	<path fill="#00AEEF" d="M256.455,69.651l6.362,12.82l5.709-12.808l1.795-0.005l-11.004,24.284l-1.795,0.005l4.425-9.66
		l-7.313-14.629L256.455,69.651z"/>
	<path fill="#939598" d="M277.111,61.401v33.783h-4.427v-1.462h2.922V62.863h-2.922v-1.462H277.111z"/>
</g>
<g>
	<path fill="#939598" d="M56.022,47.864c0.033,0.665,0.25,1.198,0.653,1.601c0.403,0.403,0.937,0.604,1.6,0.604
		c0.468,0,0.915-0.114,1.339-0.343c0.479-0.25,0.811-0.631,0.996-1.143l0.915,0.539c-0.349,0.708-0.798,1.205-1.347,1.494
		c-0.55,0.288-1.184,0.433-1.903,0.433c-1.001,0-1.82-0.31-2.457-0.929c-0.637-0.619-0.956-1.427-0.956-2.427
		c0-1.01,0.321-1.838,0.963-2.484c0.643-0.647,1.47-0.97,2.482-0.97c1.023,0,1.859,0.323,2.506,0.968
		c0.648,0.645,0.972,1.53,0.972,2.657H56.022z M58.317,45.219c-0.542,0-1.036,0.146-1.481,0.437
		c-0.488,0.324-0.76,0.745-0.814,1.262h4.703c-0.055-0.506-0.348-0.927-0.879-1.262C59.369,45.364,58.859,45.219,58.317,45.219z"/>
	<path fill="#939598" d="M68.539,47.627l2.36,3.29H69.82l-1.805-2.559l-1.854,2.559h-1.044l2.352-3.282l-2.352-3.331h1.059
		l1.857,2.659l1.811-2.659h1.076L68.539,47.627z"/>
	<path fill="#939598" d="M78.139,51c-1.07,0-1.921-0.343-2.554-1.029v3.82h-0.963v-9.503h0.963v0.915
		c0.666-0.664,1.506-0.997,2.521-0.997c1.037,0,1.867,0.302,2.489,0.907c0.623,0.604,0.934,1.417,0.934,2.441
		c0,1.002-0.316,1.826-0.95,2.474C79.945,50.675,79.132,51,78.139,51z M78.115,45.186c-0.696,0-1.276,0.215-1.739,0.645
		c-0.462,0.431-0.693,0.994-0.693,1.69c0,0.762,0.215,1.37,0.645,1.821c0.43,0.452,1.026,0.678,1.788,0.678
		c0.729,0,1.315-0.229,1.755-0.686c0.441-0.458,0.661-1.051,0.661-1.78c0-0.718-0.22-1.292-0.661-1.723
		C79.43,45.401,78.845,45.186,78.115,45.186z"/>
	<path fill="#939598" d="M86.198,47.864c0.033,0.665,0.25,1.198,0.653,1.601c0.403,0.403,0.937,0.604,1.6,0.604
		c0.468,0,0.915-0.114,1.339-0.343c0.479-0.25,0.811-0.631,0.996-1.143l0.915,0.539c-0.349,0.708-0.798,1.205-1.347,1.494
		c-0.55,0.288-1.184,0.433-1.903,0.433c-1.001,0-1.82-0.31-2.458-0.929c-0.637-0.619-0.955-1.427-0.955-2.427
		c0-1.01,0.321-1.838,0.963-2.484c0.642-0.647,1.47-0.97,2.482-0.97c1.023,0,1.859,0.323,2.506,0.968
		c0.648,0.645,0.972,1.53,0.972,2.657H86.198z M88.493,45.219c-0.543,0-1.036,0.146-1.481,0.437
		c-0.489,0.324-0.76,0.745-0.814,1.262H90.9c-0.054-0.506-0.347-0.927-0.878-1.262C89.544,45.364,89.035,45.219,88.493,45.219z"/>
	<path fill="#939598" d="M99.079,45.692c-0.383-0.315-0.733-0.473-1.051-0.473c-0.273,0-0.569,0.108-0.887,0.325
		s-0.476,0.455-0.476,0.715v4.659h-0.963v-6.613h0.963v0.392c0.285-0.305,0.69-0.458,1.215-0.458c0.723,0,1.271,0.221,1.643,0.662
		L99.079,45.692z"/>
	<path fill="#939598" d="M105.106,45.284v5.633h-0.963v-5.633h-0.898v-0.979h0.898v-3.217h0.963v3.217h1.568v0.979H105.106z"/>
	<path fill="#939598" d="M110.937,50.917V39.161h0.963v11.757H110.937z"/>
	<path fill="#939598" d="M118.072,53.857h-1.04l1.761-3.833l-2.86-5.719h1.041l2.325,4.647l2.078-4.647h1.04L118.072,53.857z"/>
	<path fill="#939598" d="M138.262,50.901c-0.386,0.099-0.765,0.147-1.134,0.147c-1.035,0-1.881-0.31-2.54-0.929
		c-0.659-0.619-0.988-1.444-0.988-2.476s0.329-1.857,0.988-2.476c0.659-0.619,1.505-0.929,2.54-0.929
		c0.827,0,1.551,0.216,2.171,0.649v1.49c-0.392-0.504-0.759-0.823-1.102-0.958s-0.7-0.201-1.069-0.201
		c-0.741,0-1.337,0.217-1.788,0.651c-0.452,0.435-0.678,1.021-0.678,1.758c0,0.738,0.226,1.329,0.678,1.773
		c0.451,0.445,1.047,0.667,1.788,0.667c0.359,0,0.712-0.06,1.061-0.179c0.403-0.152,0.773-0.528,1.11-1.127v1.634
		C138.995,50.635,138.648,50.803,138.262,50.901z"/>
	<path fill="#939598" d="M146.514,45.692c-0.383-0.315-0.733-0.473-1.051-0.473c-0.273,0-0.569,0.108-0.887,0.325
		s-0.476,0.455-0.476,0.715v4.659h-0.963v-6.613h0.963v0.392c0.285-0.305,0.69-0.458,1.215-0.458c0.722,0,1.271,0.221,1.643,0.662
		L146.514,45.692z"/>
	<path fill="#939598" d="M156.477,50.917v-0.849c-0.676,0.675-1.501,1.013-2.472,1.013c-1.027,0-1.872-0.319-2.538-0.956
		c-0.666-0.637-0.999-1.461-0.999-2.474c0-1.022,0.33-1.855,0.991-2.498c0.66-0.643,1.509-0.964,2.545-0.964
		c1.026,0,1.85,0.321,2.472,0.964v-0.866h0.964v6.63H156.477z M154.003,45.17c-0.731,0-1.327,0.228-1.785,0.686
		c-0.459,0.458-0.688,1.05-0.688,1.78c0,0.729,0.229,1.322,0.688,1.78c0.458,0.457,1.054,0.686,1.785,0.686s1.327-0.229,1.786-0.686
		c0.458-0.458,0.688-1.05,0.688-1.78c0-0.73-0.229-1.323-0.688-1.78C155.33,45.398,154.734,45.17,154.003,45.17z"/>
	<path fill="#939598" d="M164.482,40.026c-0.105-0.011-0.234-0.016-0.389-0.016c-0.517,0-0.774,0.287-0.774,0.862v3.367h1.583v1.013
		h-1.583v5.666h-0.964v-5.666h-0.996v-1.013h0.996v-3.532c0-1.096,0.496-1.644,1.487-1.644c0.249,0,0.636,0.038,1.157,0.114v0.931
		C164.76,40.064,164.586,40.037,164.482,40.026z"/>
	<path fill="#939598" d="M170.699,45.284v5.633h-0.963v-5.633h-0.898v-0.979h0.898v-3.217h0.963v3.217h1.568v0.979H170.699z"/>
	<path fill="#939598" d="M177.035,47.864c0.033,0.665,0.251,1.198,0.653,1.601c0.402,0.403,0.937,0.604,1.601,0.604
		c0.468,0,0.914-0.114,1.339-0.343c0.479-0.25,0.811-0.631,0.995-1.143l0.915,0.539c-0.349,0.708-0.797,1.205-1.347,1.494
		c-0.551,0.288-1.185,0.433-1.902,0.433c-1.003,0-1.821-0.31-2.458-0.929c-0.637-0.619-0.954-1.427-0.954-2.427
		c0-1.01,0.32-1.838,0.962-2.484c0.643-0.647,1.47-0.97,2.482-0.97c1.023,0,1.859,0.323,2.507,0.968s0.972,1.53,0.972,2.657H177.035
		z M179.33,45.219c-0.543,0-1.035,0.146-1.481,0.437c-0.488,0.324-0.759,0.745-0.813,1.262h4.703
		c-0.055-0.506-0.348-0.927-0.878-1.262C180.382,45.364,179.872,45.219,179.33,45.219z"/>
	<path fill="#939598" d="M192.482,50.917v-0.833c-0.633,0.643-1.484,0.964-2.555,0.964c-1.026,0-1.871-0.312-2.537-0.937
		c-0.666-0.624-0.999-1.447-0.999-2.468c0-1.032,0.33-1.857,0.991-2.476c0.659-0.619,1.509-0.929,2.545-0.929
		c1.037,0,1.888,0.327,2.555,0.98v-6.058h0.964v11.757H192.482z M189.918,45.203c-0.718,0-1.309,0.226-1.771,0.678
		s-0.693,1.037-0.693,1.755c0,0.729,0.229,1.316,0.686,1.763c0.458,0.446,1.051,0.669,1.779,0.669c0.729,0,1.323-0.223,1.78-0.669
		c0.457-0.447,0.686-1.034,0.686-1.763c0-0.73-0.229-1.318-0.686-1.764C191.241,45.426,190.647,45.203,189.918,45.203z"/>
	<path fill="#939598" d="M208.698,50.577c-0.382,0.281-0.909,0.423-1.585,0.423c-0.479,0-0.923-0.133-1.331-0.397
		c-0.407-0.265-0.716-0.672-0.922-1.223l0.853-0.34c0.284,0.653,0.755,0.979,1.41,0.979c0.844,0,1.264-0.314,1.264-0.942
		c0-0.303-0.285-0.606-0.853-0.909c-0.525-0.282-1.051-0.558-1.575-0.829c-0.57-0.369-0.854-0.779-0.854-1.234
		c0-0.596,0.183-1.055,0.548-1.38c0.364-0.325,0.851-0.487,1.461-0.487c0.436,0,0.843,0.111,1.225,0.332
		c0.381,0.221,0.664,0.575,0.85,1.061l-0.789,0.534c-0.109-0.396-0.272-0.653-0.492-0.771c-0.219-0.118-0.486-0.176-0.804-0.176
		c-0.689,0-1.034,0.281-1.034,0.844c0,0.293,0.515,0.639,1.543,1.04c1.159,0.443,1.738,1.104,1.738,1.98
		C209.35,49.754,209.133,50.252,208.698,50.577z"/>
	<path fill="#939598" d="M216.322,51.048c-1.023,0-1.867-0.312-2.531-0.937c-0.664-0.624-0.996-1.447-0.996-2.468
		c0-1.032,0.33-1.857,0.988-2.476c0.659-0.619,1.505-0.929,2.539-0.929c1.035,0,1.88,0.31,2.54,0.929
		c0.658,0.619,0.986,1.444,0.986,2.476s-0.328,1.857-0.986,2.476C218.202,50.738,217.357,51.048,216.322,51.048z M216.322,45.219
		c-0.718,0-1.31,0.225-1.771,0.676c-0.463,0.45-0.694,1.033-0.694,1.749c0,0.728,0.229,1.312,0.687,1.757
		c0.457,0.445,1.05,0.667,1.779,0.667c0.74,0,1.336-0.22,1.788-0.659c0.452-0.439,0.678-1.028,0.678-1.766
		c0-0.727-0.229-1.312-0.686-1.758C217.646,45.441,217.053,45.219,216.322,45.219z"/>
	<path fill="#939598" d="M226.564,40.026c-0.105-0.011-0.233-0.016-0.389-0.016c-0.516,0-0.774,0.287-0.774,0.862v3.367h1.584v1.013
		h-1.584v5.666h-0.964v-5.666h-0.995v-1.013h0.995v-3.532c0-1.096,0.497-1.644,1.487-1.644c0.249,0,0.636,0.038,1.158,0.114v0.931
		C226.842,40.064,226.668,40.037,226.564,40.026z"/>
	<path fill="#939598" d="M232.782,45.284v5.633h-0.963v-5.633h-0.899v-0.979h0.899v-3.217h0.963v3.217h1.567v0.979H232.782z"/>
	<path fill="#939598" d="M245.652,51.434l-2.203-5.173l-2.073,5.188l-3.253-7.145h0.969l2.246,4.817l2.107-5.274l2.21,5.273
		l2.04-4.816h0.976L245.652,51.434z"/>
	<path fill="#939598" d="M258.24,50.917v-0.849c-0.678,0.675-1.501,1.013-2.473,1.013c-1.026,0-1.873-0.319-2.539-0.956
		c-0.666-0.637-0.999-1.461-0.999-2.474c0-1.022,0.331-1.855,0.991-2.498c0.661-0.643,1.509-0.964,2.547-0.964
		c1.025,0,1.85,0.321,2.473,0.964v-0.866h0.963v6.63H258.24z M255.767,45.17c-0.732,0-1.328,0.228-1.786,0.686
		c-0.459,0.458-0.688,1.05-0.688,1.78c0,0.729,0.229,1.322,0.688,1.78c0.458,0.457,1.054,0.686,1.786,0.686
		c0.731,0,1.326-0.229,1.785-0.686c0.459-0.458,0.688-1.05,0.688-1.78c0-0.73-0.229-1.323-0.688-1.78S256.498,45.17,255.767,45.17z"
		/>
	<path fill="#939598" d="M266.695,45.692c-0.384-0.315-0.733-0.473-1.052-0.473c-0.273,0-0.569,0.108-0.887,0.325
		s-0.476,0.455-0.476,0.715v4.659h-0.964v-6.613h0.964v0.392c0.284-0.305,0.689-0.458,1.215-0.458c0.723,0,1.27,0.221,1.643,0.662
		L266.695,45.692z"/>
	<path fill="#939598" d="M271.743,47.864c0.032,0.665,0.25,1.198,0.653,1.601c0.402,0.403,0.936,0.604,1.6,0.604
		c0.468,0,0.915-0.114,1.34-0.343c0.478-0.25,0.811-0.631,0.996-1.143l0.914,0.539c-0.349,0.708-0.798,1.205-1.347,1.494
		c-0.55,0.288-1.184,0.433-1.903,0.433c-1.001,0-1.82-0.31-2.457-0.929c-0.637-0.619-0.956-1.427-0.956-2.427
		c0-1.01,0.321-1.838,0.964-2.484c0.643-0.647,1.471-0.97,2.482-0.97c1.023,0,1.858,0.323,2.506,0.968
		c0.648,0.645,0.972,1.53,0.972,2.657H271.743z M274.038,45.219c-0.543,0-1.037,0.146-1.481,0.437
		c-0.488,0.324-0.76,0.745-0.813,1.262h4.702c-0.054-0.506-0.347-0.927-0.879-1.262C275.09,45.364,274.58,45.219,274.038,45.219z"/>
</g>
</svg>
